# xmcd CD database file
#
# Track frame offsets:
#	150
#	18472
#	35283
#	48028
#	61704
#	76986
#	93248
#	107843
#	123420
#	139389
#	154299
#	169260
#	182668
#	195682
#
# Disc length: 2845 seconds
#
# Revision: 1
# Processed by: cddbd v1.5.2PL0 Copyright (c) Steve Scherf et al.
# Submitted via: CDex 1.50
#
DISCID=b30b1b0e
DTITLE=Asa - Lucid
DYEAR=2019
DGENRE=tbd
TTITLE0=Murder in the USA
TTITLE1=The Beginning
TTITLE2=Good Thing
TTITLE3=Stay tonight
TTITLE4=Torn
TTITLE5=Happy People
TTITLE6=You and Me
TTITLE7=Femi Mo
TTITLE8=Makes No Sense
TTITLE9=365
TTITLE10=Until We Try (This Lo')
TTITLE11=9 Lives
TTITLE12=Don't let me go
TTITLE13=My Dear
EXTD=YEAR: 2019
EXTT0=
EXTT1=
EXTT2=
EXTT3=
EXTT4=
EXTT5=
EXTT6=
EXTT7=
EXTT8=
EXTT9=
EXTT10=
EXTT11=
EXTT12=
EXTT13=
PLAYORDER=
